<?xml version="1.0" standalone="no"?>
<!DOCTYPE svg PUBLIC "-//W3C//DTD SVG 20010904//EN"
 "http://www.w3.org/TR/2001/REC-SVG-20010904/DTD/svg10.dtd">
<svg version="1.0" xmlns="http://www.w3.org/2000/svg"
 width="180.000000pt" height="120.000000pt" viewBox="0 0 180.000000 120.000000"
 preserveAspectRatio="xMidYMid meet">

<g transform="translate(0.000000,120.000000) scale(0.100000,-0.100000)"
fill="#000000" stroke="none">
<path d="M882 1078 c-14 -14 -17 -924 -4 -946 7 -9 57 -12 218 -10 l209 3 3
474 c2 373 0 476 -10 483 -22 13 -402 10 -416 -4z m416 -243 c1 -126 0 -250
-4 -273 -5 -41 -7 -43 -23 -28 -10 9 -24 16 -32 16 -8 0 -20 9 -27 20 -12 19
-11 20 14 14 22 -6 25 -4 22 12 -2 11 3 25 12 32 13 12 13 13 -1 9 -22 -7 -16
43 7 60 10 7 14 16 9 20 -4 5 -10 2 -12 -5 -9 -23 -22 -1 -17 27 7 33 -10 44
-53 32 -17 -5 -29 -15 -31 -28 -3 -18 -9 -20 -42 -17 -22 2 -42 -1 -46 -7 -5
-8 -9 -8 -14 1 -13 21 -32 0 -28 -30 3 -19 0 -26 -8 -23 -6 2 -18 -3 -27 -11
-9 -9 -19 -16 -24 -16 -4 0 -24 -16 -43 -35 -19 -19 -37 -35 -41 -35 -10 0
-12 484 -2 493 4 4 97 6 207 5 l201 -3 3 -230z m-71 -100 c0 -8 -6 -15 -14
-15 -7 0 -18 -10 -23 -22 -8 -20 -9 -21 -9 -4 -1 18 26 54 40 55 3 1 6 -6 6
-14z m3 -45 c0 -5 -4 -10 -10 -10 -5 0 -10 5 -10 10 0 6 5 10 10 10 6 0 10 -4
10 -10z m-17 -32 c12 3 19 2 16 -2 -4 -4 -20 -8 -37 -11 -17 -2 -42 -11 -54
-20 -22 -16 -22 -17 -2 -13 11 3 29 -1 38 -8 16 -11 14 -13 -18 -11 -20 1 -36
7 -37 12 -4 40 -2 51 16 61 15 8 25 7 38 -2 10 -6 28 -9 40 -6z m-165 -78 c10
0 3 -9 -18 -24 -35 -24 -60 -26 -28 -2 10 7 15 16 12 19 -3 3 -2 11 2 18 6 10
9 10 12 1 2 -7 11 -12 20 -12z m114 -24 c7 5 9 2 6 -8 -5 -11 0 -14 20 -11 26
3 27 3 5 -8 -24 -13 -31 -43 -12 -55 8 -4 8 -9 0 -17 -6 -6 -11 -23 -11 -38 0
-32 -39 -67 -51 -47 -4 6 -5 17 -2 25 3 8 -2 13 -13 14 -11 0 -32 2 -47 3 -37
2 -43 -8 -18 -33 16 -16 17 -21 5 -25 -19 -7 -18 -36 1 -36 8 0 15 -4 15 -10
0 -5 -2 -10 -4 -10 -2 0 -11 -3 -19 -6 -23 -9 -54 62 -39 87 10 15 9 19 -2 19
-24 0 -38 -27 -31 -59 6 -30 56 -77 102 -96 l22 -10 -20 -25 c-20 -24 -20 -24
-14 -2 4 13 2 22 -5 22 -17 0 -23 -29 -10 -45 12 -14 16 -13 38 7 l24 23 -6
-22 c-6 -19 -4 -22 9 -16 17 6 38 -14 29 -29 -8 -13 -228 -10 -242 4 -8 8 -12
54 -12 142 0 140 11 181 45 181 11 0 39 11 63 23 23 12 42 18 42 12 0 -7 17
-10 42 -8 49 3 61 27 32 59 -17 19 -17 19 14 3 18 -8 37 -12 44 -8z m103 -46
c3 -5 -3 -10 -14 -10 -11 0 -23 -4 -26 -10 -9 -15 -25 -12 -25 4 0 21 54 34
65 16z m8 -27 c-7 -2 -13 -11 -13 -19 0 -9 -5 -12 -10 -9 -13 8 6 35 24 34 7
0 6 -2 -1 -6z m27 -37 c0 -8 -8 -16 -17 -18 -15 -3 -15 -4 1 -21 10 -10 15
-21 11 -25 -3 -4 -11 1 -16 11 -6 9 -14 15 -20 12 -13 -9 -11 29 3 43 16 16
38 15 38 -2z m-75 -6 c3 -5 -3 -10 -15 -10 -12 0 -18 5 -15 10 3 6 10 10 15
10 5 0 12 -4 15 -10z m-5 -50 c0 -5 -5 -10 -11 -10 -5 0 -7 5 -4 10 3 6 8 10
11 10 2 0 4 -4 4 -10z m-113 -76 c-3 -3 -12 -4 -19 -1 -8 3 -5 6 6 6 11 1 17
-2 13 -5z m170 -34 c-2 -22 1 -40 5 -40 4 0 8 -20 8 -45 l0 -45 -52 0 -53 0
35 18 c38 18 53 58 26 68 -12 5 -13 10 -4 24 7 10 16 16 22 13 5 -4 7 1 3 11
-6 16 -2 36 8 36 2 0 3 -18 2 -40z m-137 -28 c0 -15 -2 -15 -10 -2 -13 20 -13
33 0 25 6 -3 10 -14 10 -23z m17 -84 c-3 -8 -6 -5 -6 6 -1 11 2 17 5 13 3 -3
4 -12 1 -19z"/>
<path d="M1085 1050 c-3 -5 -1 -10 4 -10 6 0 11 5 11 10 0 6 -2 10 -4 10 -3 0
-8 -4 -11 -10z"/>
<path d="M1170 935 c-15 -18 -4 -54 20 -63 16 -6 17 -9 4 -26 -12 -17 -14 -18
-14 -3 0 9 -5 17 -11 17 -6 0 -9 -10 -7 -22 4 -31 48 -39 48 -9 0 28 18 27 23
-1 3 -21 4 -21 11 -5 6 12 3 24 -9 37 -10 11 -13 20 -7 20 17 0 25 39 12 55
-19 22 -40 18 -40 -7 0 -18 2 -20 10 -8 11 18 25 6 16 -15 -10 -27 -41 -13
-39 18 2 31 0 33 -17 12z"/>
<path d="M961 679 c-29 -23 -50 -44 -47 -47 7 -6 106 69 106 80 0 13 -5 10
-59 -33z"/>
<path d="M1037 483 c-11 -10 -8 -38 5 -51 9 -9 16 -8 32 6 11 9 16 11 12 4 -6
-10 -3 -13 10 -10 24 4 31 46 10 54 -9 4 -23 1 -31 -6 -10 -9 -15 -9 -15 -1 0
12 -13 15 -23 4z"/>
<path d="M1147 411 c-4 -17 -3 -21 5 -13 5 5 8 16 6 23 -3 8 -7 3 -11 -10z"/>
<path d="M540 1016 c0 -35 22 -49 48 -30 18 12 20 19 12 35 -6 11 -21 19 -35
19 -20 0 -25 -5 -25 -24z"/>
<path d="M624 979 c-9 -15 11 -33 30 -26 9 4 13 13 10 22 -7 17 -30 20 -40 4z"/>
<path d="M547 954 c-13 -13 -7 -52 9 -58 22 -9 46 13 42 38 -3 21 -37 34 -51
20z"/>
<path d="M625 900 c-4 -6 -1 -17 5 -26 10 -11 16 -12 26 -3 11 9 11 15 3 25
-14 17 -25 18 -34 4z"/>
<path d="M541 862 c-13 -25 8 -56 35 -50 29 5 27 62 -3 66 -13 2 -26 -4 -32
-16z"/>
</g>
</svg>
